# xmcd CD database file
#
# Track frame offsets:
#	150
#	35325
#	58800
#	98925
#	121650
#	146550
#	178425
#	212325
#	237150
#	274125
#
# Disc length: 4053 seconds
#
# Revision: 0
# Processed by: cddbd v1.5.2PL0 Copyright (c) Steve Scherf et al.
# Submitted via: CDex 1.70beta2
#
DISCID=8f0fd30a
DTITLE=David Hazeltine - the classic trio
DYEAR=1996
DGENRE=Jazz
TTITLE0=You Make Me Feel So Young
TTITLE1=The Fruit
TTITLE2=Sweet and Lovely
TTITLE3=Concentration
TTITLE4=Catherine's Fantasy
TTITLE5=One For Peter
TTITLE6=You've Changed
TTITLE7=My Stuff's on the Street Blues
TTITLE8=These Foolish Things
TTITLE9=Midnight Waltz
EXTD=YEAR: 1996
EXTT0=
EXTT1=
EXTT2=
EXTT3=
EXTT4=
EXTT5=
EXTT6=
EXTT7=
EXTT8=
EXTT9=
PLAYORDER=
